 http://www.shotpix.com/images/48703286561501815724.jpg


 
http://www.imdb.com/title/tt1641975/


Plot:An agoraphobic father teams up with a renegade priest to save his daughter from the clutches of a gang of twisted feral children who committed an act of violence against his family years earlier.
 


Director: 
Ciaran Foy

 Writer: 
Ciaran Foy
 
Stars:
 Aneurin Barnard, James Cosmo and Wunmi Mosaku

Genres:
 Drama | Horror | Thriller 

Country:
Ireland |UK 

Language:
English 

Format                                   : AVI
Format/Info                              : Audio Video Interleave
File size                                : 1.27 GiB
Duration                                 : 1h 24mn
Overall bit rate                         : 2 147 Kbps
Writing application                      : VirtualDubMod 1.5.10.2 (build 2540/release)
Writing library                          : VirtualDubMod build 2540/release

Video
ID                                       : 0
Format                                   : MPEG-4 Visual
Format profile                           : Advanced Simple@L5
Format settings, BVOP                    : 2
Format settings, QPel                    : No
Format settings, GMC                     : No warppoints
Format settings, Matrix                  : Default (H.263)
Muxing mode                              : Packed bitstream
Codec ID                                 : XVID
Codec ID/Hint                            : XviD
Duration                                 : 1h 24mn
Bit rate                                 : 1 690 Kbps
Width                                    : 720 pixels
Height                                   : 400 pixels
Display aspect ratio                     : 16:9
Frame rate                               : 23.976 fps
Color space                              : YUV
Chroma subsampling                       : 4:2:0
Bit depth                                : 8 bits
Scan type                                : Progressive
Compression mode                         : Lossy
Bits/(Pixel*Frame)                       : 0.245
Stream size                              : 1 020 MiB (79%)
Writing library                          : XviD 63

Audio
ID                                       : 1
Format                                   : AC-3
Format/Info                              : Audio Coding 3
Mode extension                           : CM (complete main)
Format settings, Endianness              : Big
Codec ID                                 : 2000
Duration                                 : 1h 24mn
Bit rate mode                            : Constant
Bit rate                                 : 448 Kbps
Channel(s)                               : 6 channels
Channel positions                        : Front: L C R, Side: L R, LFE
Sampling rate                            : 48.0 KHz
Bit depth                                : 16 bits
Compression mode                         : Lossy
Stream size                              : 270 MiB (21%)
Alignment                                : Split accross interleaves
Interleave, duration                     : 42 ms (1.00 video frame)
Interleave, preload duration             : 500 ms



 
http://www.shotpix.com/images/34446558338495180071.png
 
http://www.shotpix.com/images/64954559838893086397.png
 
http://www.shotpix.com/images/24574600284793356500.png
 
http://www.shotpix.com/images/21579842573370183974.png
